<?xml version="1.0" encoding="UTF-8"?>
<svg id="Layer_2" data-name="Layer 2" xmlns="http://www.w3.org/2000/svg" viewBox="0 0 119.26 168.75">
  <defs>
    <style>
      .cls-1 {
        fill: #6067af;
      }

      .cls-2 {
        fill: #4abaeb;
      }

      .cls-3, .cls-4 {
        fill: #475569;
      }

      .cls-5 {
        fill: #94a3b7;
      }

      .cls-5, .cls-4 {
        stroke: #65748b;
      }

      .cls-5, .cls-4, .cls-6 {
        stroke-miterlimit: 10;
        stroke-width: .25px;
      }

      .cls-7, .cls-6 {
        fill: #ccd5e1;
      }

      .cls-8 {
        fill: #fff;
      }

      .cls-9 {
        fill: #56bf92;
        opacity: .4;
      }

      .cls-10 {
        fill: #eb4998;
      }

      .cls-10, .cls-11 {
        opacity: .6;
      }

      .cls-12 {
        fill: #82d1f5;
      }

      .cls-6 {
        stroke: #94a3b7;
      }
    </style>
  </defs>
  <g id="_1" data-name="1">
    <path class="cls-12" d="M117.75,32.96l-7.71,10.68c-.87,1.11-1.72,1.98-2.55,2.61-.83.63-2.03.95-3.61.95s-2.97-.46-4.39-1.37c-1.43-.9-3.13-1.93-5.1-3.08-1.5-.87-3.19-1.67-5.11-2.39h-.01c-.92-3.61-1.86-7.04-2.81-10.24-1.57-5.28-3.14-9.89-4.6-13.5-.05-.12-.1-.24-.15-.36,6.52.52,12.39,1.9,17.6,4.13,6.84,2.93,12.99,7.12,18.44,12.57Z"/>
    <path class="cls-12" d="M105.85,132.62c-3,1.83-6.1,3.35-9.27,4.55-4.07,1.54-8.28,2.63-12.63,3.26-4.35.64-8.66.95-12.93.95-7.08,0-13.76-1.24-20.07-3.73-.39-.16-.78-.32-1.17-.48-1.3-.55-2.56-1.15-3.8-1.79-1.17-6.44-1.51-13.01-1.9-19.09-.91-14.12-3.21-24.11-8.96-30.94-3.01-3.59-5.95-5.55-8.12-6.79-1.49-.86-3.03-1.54-4.52-2.08-2.2-.79-4.31-1.28-6.08-1.58.06-1.46.15-2.9.29-4.32.54-5.96,1.71-11.6,3.5-16.92,2.01-5.95,4.74-11.28,8.22-15.98.02.02.03.05.04.07.41.79.86,1.57,1.32,2.37,2.69,4.64,9.13,12.12,16.92,19.85.51.51,1.03,1.02,1.55,1.52.02.02.03.03.05.05-.02.06-.03.13-.05.19-1.26,4.94-1.89,10.54-1.89,16.78s.69,12.26,2.07,17.32,3.38,9.31,5.99,12.75,5.77,6.05,9.49,7.83c3.72,1.78,7.91,2.67,12.57,2.67s8.45-.57,11.33-1.72c2.89-1.14,5.32-2.41,7.3-3.79,1.97-1.39,3.69-2.65,5.16-3.8.01-.01.03-.02.04-.03.03.06.05.11.08.17,1.48,3.26,2.8,6.69,3.76,10.19,1.12,4.04,1.75,8.25,1.71,12.52Z"/>
    <g>
      <path class="cls-12" d="M118.94,121.45c-2.72,3.18-5.63,5.93-8.74,8.25-.6.45-1.2.88-1.82,1.3-.84.57-1.68,1.11-2.53,1.62.04-4.27-.59-8.48-1.71-12.52-.96-3.5-2.28-6.93-3.76-10.19-.03-.06-.05-.11-.08-.17,1.22-.95,2.56-1.5,4.04-1.64.27-.04.55-.05.84-.05,2.37,0,4.15.91,5.34,2.73l8.42,10.67Z"/>
      <g class="cls-11">
        <path class="cls-8" d="M105.18,108.05c2.37,0,4.15.91,5.34,2.73l8.42,10.67c-2.72,3.18-5.63,5.93-8.74,8.25-.6.45-1.2.88-1.82,1.3-.84.57-1.68,1.11-2.53,1.62.04-4.27-.59-8.48-1.71-12.52-.96-3.5-2.28-6.93-3.76-10.19-.03-.06-.05-.11-.08-.17,1.22-.95,2.56-1.5,4.04-1.64.27-.04.55-.05.84-.05M105.18,107.8c-.24,0-.56,0-.88.05-1.5.14-2.9.71-4.16,1.69l-.16.13.09.18.04.08.04.09c1.61,3.54,2.87,6.96,3.74,10.14,1.17,4.21,1.74,8.4,1.7,12.45v.45s.38-.23.38-.23c.83-.5,1.66-1.03,2.54-1.63.61-.41,1.2-.84,1.83-1.31,3.1-2.31,6.05-5.1,8.78-8.29l.13-.16-.13-.16-8.42-10.67c-1.22-1.87-3.09-2.83-5.54-2.83h0Z"/>
      </g>
      <path class="cls-10" d="M118.94,121.45c-2.72,3.18-5.63,5.93-8.74,8.25-.6.45-1.2.88-1.82,1.3-.84.57-1.68,1.11-2.53,1.62.04-4.27-.59-8.48-1.71-12.52-.96-3.5-2.28-6.93-3.76-10.19-.03-.06-.05-.11-.08-.17,1.22-.95,2.56-1.5,4.04-1.64.27-.04.55-.05.84-.05,2.37,0,4.15.91,5.34,2.73l8.42,10.67Z"/>
    </g>
    <g>
      <path class="cls-12" d="M89.27,40.36c-.63-.25-1.27-.48-1.94-.7-.31-.1-.63-.2-.96-.29-2.55-.71-5.61-1.07-9.18-1.07-5.15,0-9.65.93-13.53,2.79-3.87,1.86-7.1,4.53-9.66,8-2.02,2.74-3.63,5.92-4.85,9.55-.31.94-.6,1.9-.86,2.9-.02-.02-.03-.03-.05-.05-.52-.5-1.04-1.01-1.55-1.52-7.79-7.73-14.23-15.21-16.92-19.85-.46-.8-.91-1.58-1.32-2.37-.01-.02-.02-.05-.04-.07.59-.8,1.2-1.58,1.84-2.34.41-.51.83-1,1.27-1.49,4.98-5.57,11.15-9.94,18.5-13.11,7.36-3.16,15.82-4.74,25.39-4.74,1.07,0,2.12.02,3.15.06,1.07.04,2.12.11,3.15.2.05.12.1.24.15.36,1.46,3.61,3.03,8.22,4.6,13.5.95,3.2,1.89,6.63,2.81,10.24Z"/>
      <g class="cls-11">
        <path class="cls-8" d="M75.41,16c1.07,0,2.12.02,3.15.06,1.07.04,2.12.11,3.15.2.05.12.1.24.15.36,1.46,3.61,3.03,8.22,4.6,13.5.95,3.2,1.89,6.63,2.81,10.24-.63-.25-1.27-.48-1.94-.7-.31-.1-.63-.2-.96-.29-2.55-.71-5.61-1.07-9.18-1.07-5.15,0-9.65.93-13.53,2.79-3.87,1.86-7.1,4.53-9.66,8-2.02,2.74-3.63,5.92-4.85,9.55-.31.94-.6,1.9-.86,2.9-.02-.02-.03-.03-.05-.05-.52-.5-1.04-1.01-1.55-1.52-7.79-7.73-14.23-15.21-16.92-19.85-.46-.8-.91-1.58-1.32-2.37-.01-.02-.02-.05-.04-.07.59-.8,1.2-1.58,1.84-2.34.41-.51.83-1,1.27-1.49,4.98-5.57,11.15-9.94,18.5-13.11,7.36-3.16,15.82-4.74,25.39-4.74M75.41,15.75c-9.56,0-18.13,1.6-25.49,4.76-7.36,3.17-13.61,7.6-18.59,13.17-.47.52-.88,1.01-1.28,1.5-.62.73-1.22,1.5-1.85,2.35l-.13.17.15.15c.39.78.82,1.52,1.27,2.31l.05.08c2.63,4.53,8.97,11.97,16.96,19.9.51.51,1.03,1.02,1.55,1.52l.05.05.31.31.11-.42c.24-.92.52-1.87.86-2.88,1.21-3.6,2.83-6.79,4.81-9.48,2.52-3.42,5.74-6.08,9.57-7.92,3.83-1.83,8.34-2.77,13.42-2.77,3.52,0,6.58.36,9.11,1.06.33.09.64.19.95.29.68.22,1.31.45,1.92.69l.46.18-.12-.47c-.93-3.63-1.87-7.08-2.81-10.25-1.56-5.26-3.16-9.94-4.61-13.52l-.07-.17-.08-.19-.06-.14h-.15c-1.11-.11-2.15-.18-3.16-.21-1.03-.04-2.09-.06-3.16-.06h0Z"/>
      </g>
      <path class="cls-9" d="M89.27,40.36c-.63-.25-1.27-.48-1.94-.7-.31-.1-.63-.2-.96-.29-2.55-.71-5.61-1.07-9.18-1.07-5.15,0-9.65.93-13.53,2.79-3.87,1.86-7.1,4.53-9.66,8-2.02,2.74-3.63,5.92-4.85,9.55-.31.94-.6,1.9-.86,2.9-.02-.02-.03-.03-.05-.05-.52-.5-1.04-1.01-1.55-1.52-7.79-7.73-14.23-15.21-16.92-19.85-.46-.8-.91-1.58-1.32-2.37-.01-.02-.02-.05-.04-.07.59-.8,1.2-1.58,1.84-2.34.41-.51.83-1,1.27-1.49,4.98-5.57,11.15-9.94,18.5-13.11,7.36-3.16,15.82-4.74,25.39-4.74,1.07,0,2.12.02,3.15.06,1.07.04,2.12.11,3.15.2.05.12.1.24.15.36,1.46,3.61,3.03,8.22,4.6,13.5.95,3.2,1.89,6.63,2.81,10.24Z"/>
    </g>
    <g>
      <path class="cls-2" d="M45.98,135.38c-5.07-2.67-9.6-6.16-13.57-10.49-4.95-5.37-8.86-11.96-11.75-19.75-2.88-7.78-4.33-16.66-4.33-26.63,0-1.21.02-2.42.07-3.61,1.77.3,3.88.79,6.08,1.58,1.49.54,3.03,1.22,4.52,2.08,2.17,1.24,5.11,3.2,8.12,6.79,5.75,6.83,8.05,16.82,8.96,30.94.39,6.08.73,12.65,1.9,19.09Z"/>
      <g class="cls-11">
        <path class="cls-8" d="M16.4,74.9c1.77.3,3.88.79,6.08,1.58,1.49.54,3.03,1.22,4.52,2.08,2.17,1.24,5.11,3.2,8.12,6.79,5.75,6.83,8.05,16.82,8.96,30.94.39,6.08.73,12.65,1.9,19.09-5.07-2.67-9.6-6.16-13.57-10.49-4.95-5.37-8.86-11.96-11.75-19.75-2.88-7.78-4.33-16.66-4.33-26.63,0-1.21.02-2.42.07-3.61M16.16,74.61v.28c-.06,1.12-.08,2.31-.08,3.62,0,9.94,1.46,18.93,4.35,26.72,2.9,7.81,6.87,14.48,11.8,19.83,3.95,4.31,8.54,7.86,13.64,10.54l.45.24-.09-.51c-1.06-5.86-1.44-11.75-1.79-17.45l-.1-1.62c-1-15.46-3.69-24.76-9.02-31.09-3.13-3.73-6.17-5.69-8.19-6.85-1.38-.79-2.91-1.5-4.56-2.1-1.94-.7-4-1.23-6.12-1.59l-.28-.05h0Z"/>
      </g>
    </g>
    <path class="cls-3" d="M51.01,6.43c1.88-.86,1.93-1.94,3.47-2.02,1.09-.08,2.33,1.21,2.35,2.34.13,1.64-2.2,2.47-2.8,3.43-.82,1.31-.47,1.95-1.85,2.79-1.14.69-1.95.4-2.51.15-.73-.32-2.23-2.18-2.54-3.03-.37-1.35.37-2.37.92-2.79,1.23-.96,1.81-.33,2.96-.86Z"/>
    <path class="cls-3" d="M41.46,17.51c-2.04.28-2.41,1.3-3.91.93-1.07-.24-1.88-1.83-1.57-2.92.35-1.6,2.82-1.73,3.68-2.47,1.17-1.02,1.02-1.73,2.58-2.13,1.29-.33,1.98.18,2.44.58.61.52,1.51,2.73,1.55,3.63-.04,1.4-1.04,2.16-1.69,2.41-1.46.56-1.83-.2-3.09-.03Z"/>
    <path class="cls-7" d="M56.99,66.17c-.07,1.62-.24,1.63-1.9,1.75-.13-.12-.27-.24-.4-.37-.05-.04-.1-.08-.15-.13-2.13-1.93-4.24-3.91-6.25-5.88-.02-.02-.03-.03-.05-.05-.52-.5-1.04-1.01-1.55-1.52-7.79-7.73-14.23-15.21-16.92-19.85-.46-.8-.91-1.58-1.32-2.37-.01-.02-.02-.05-.04-.07-1.06-2-1.94-3.97-2.45-5.98-.72-2.74-.74-5.53.42-8.49,1.85-4.71,7.16-6.87,9.6-7.67h.01c.12-.04.25-.08.37-.11.6-.17,1.27.08,1.53.64.01.02.01.03.02.04.29.67-.09,1.45-.77,1.71-.12.04-.23.09-.39.15h-.01c-3.74,1.43-8.66,4.49-8.74,9.63-.01.33,0,.67.04,1.03.18,1.96.92,4.2,2.21,6.71,0,.03.02.06.04.09,2.96,5.75,8.72,12.89,16.89,21.22.63.65,1.28,1.3,1.94,1.96,0,.01.02.02.03.03,2.21,2.2,4.58,4.49,7.11,6.85.03.03.07.06.1.09.21.19.41.39.63.59Z"/>
    <g>
      <path class="cls-7" d="M91.19,48.23c-.84,1.39-1.15,1.04-2.54.39-.06-.03-.11-.08-.12-.15-.11-.48-.21-.95-.32-1.42-.01,0-.01-.02-.01-.03-.56-2.51-1.13-4.92-1.72-7.22-.93-3.71-1.89-7.15-2.88-10.33-1.56-5.04-3.19-9.4-4.87-13.05-1.91-4.17-3.88-7.42-5.89-9.71-1.32-1.5-2.66-2.59-4.01-3.26-4.79-2.34-9.25.24-12.06,2.89-.07.06-.13.13-.2.19-.51.5-1.33.48-1.8-.06-.04-.04-.07-.08-.11-.12-.4-.53-.27-1.28.21-1.73.05-.04.1-.09.15-.14,1.91-1.72,6.09-4.79,10.63-4.46,4.87.36,7.85,2.9,10.63,6.66.89,1.2,1.75,2.53,2.66,3.94.9,1.4,1.88,3.44,2.92,6,1.46,3.61,3.03,8.22,4.6,13.5.99,3.33,1.97,6.92,2.93,10.69.48,1.88.95,3.8,1.42,5.76h0c.12.56.25,1.11.38,1.66Z"/>
      <path class="cls-7" d="M91.19,48.23c-.84,1.39-1.15,1.04-2.54.39-.06-.03-.11-.08-.12-.15-.11-.48-.21-.95-.32-1.42-.01,0-.01-.02-.01-.03-.56-2.51-1.13-4.92-1.72-7.22-.93-3.71-1.89-7.15-2.88-10.33-1.56-5.04-3.19-9.4-4.87-13.05-1.91-4.17-3.88-7.42-5.89-9.71-1.32-1.5-2.66-2.59-4.01-3.26-4.79-2.34-9.25.24-12.06,2.89-.07.06-.13.13-.2.19-.51.5-1.33.48-1.8-.06-.04-.04-.07-.08-.11-.12-.4-.53-.27-1.28.21-1.73.05-.04.1-.09.15-.14,1.91-1.72,6.09-4.79,10.63-4.46,4.87.36,7.85,2.9,10.63,6.66.89,1.2,1.75,2.53,2.66,3.94.9,1.4,1.88,3.44,2.92,6,1.46,3.61,3.03,8.22,4.6,13.5.99,3.33,1.97,6.92,2.93,10.69.48,1.88.95,3.8,1.42,5.76h0c.12.56.25,1.11.38,1.66Z"/>
    </g>
    <path class="cls-1" d="M105.28,152.8c-5.58,10.38-14.75,15.33-22.97,15.88-7.87.53-14.93-2.18-20.04-5.58-7.11-4.73-10.8-10.91-12.93-15.96-1.53-3.62-2.56-7.44-3.28-11.31-.03-.15-.06-.3-.08-.45-1.17-6.44-1.51-13.01-1.9-19.09-.91-14.12-3.21-24.11-8.96-30.94-3.01-3.59-5.95-5.55-8.12-6.79-1.49-.86-3.03-1.54-4.52-2.08-2.2-.79-4.31-1.28-6.08-1.58-2.89-.5-4.88-.5-4.88-.5l.52-4.17c.11.04,1.93-.01,4.65.35,3.21.44,7.67,1.46,12.06,3.88,5.05,2.78,7.93,5.92,9.51,7.74,6.53,7.49,9.12,18.34,10.22,33.96.72,10.13,1.34,16.43,2.47,21.49.03.15.07.29.1.44.6,2.62,1.35,4.92,2.32,7.27,2.48,6.01,6.02,10.3,10.49,13.44,4.62,3.24,8.88,5.41,16.74,5.56,6.76.13,16.21-4.33,21.16-14.35,2.77-5.64,4.01-11.44,4.09-17.15v-.24c.04-4.27-.59-8.48-1.71-12.52-.96-3.5-2.28-6.93-3.76-10.19-.03-.06-.05-.11-.08-.17-3.02-6.62-6.7-12.61-9.5-17.39-2.97-5.06-7.98-8.94-14.79-9.09-5.2-.12-8.44-3.08-9.39-3.84-4.38-3.5-7.86-6.66-11.7-10.26-.36-.33-.41-.85-.35-1.26.02-.12.06-.24.12-.35.15-.3.44-.61.91-1.15.36-.43.58-.68.76-.82.22-.18.37-.22.61-.24.52-.04.9.08,1.3.47,1.28,1.24,10.91,10.29,14.92,11.89,2.8,1.11,6.27,1.83,10.87-.68,3.48-1.9,5.65-7.36,5.96-9.57.64-4.64-1.5-14.61-2.53-18.64-.23-.89.21-1.37.46-1.59.08-.07.16-.13.26-.17.39-.19.89-.22,1.29-.3.5-.09.92-.2,1.28-.18h.03c.27.02.97.21,1.21.9,1.09,3.12,3.3,14.03,3.34,18.57.04,5.25-3.19,9.09-3.85,10.64-2.48,5.82.85,9.91,3.01,13.36,2.91,4.67,6.74,11.24,9.82,18.06.05.1.09.21.14.31,1.62,3.6,3.02,7.25,3.96,10.72.8,2.92,1.51,6.53,1.76,10.57,0,.07.01.14.01.21.39,6.82-.6,14.85-4.93,22.89Z"/>
    <path class="cls-7" d="M23.84,72.23s0,.07,0,.11l-1.02,3.13-.29.9s-.02.06-.04.08c-.07.1-.2.14-.33.1l-2.55-.83-.48-.16c-.16-.05-.24-.22-.19-.37l1.3-4.03c.06-.15.22-.24.38-.18l.56.18,2.47.8c.11.04.18.13.19.23.01,0,.01.02.01.03Z"/>
    <path class="cls-4" d="M21.17,71.18c-.16,1.65-.71,3.21-1.57,4.56-.75,1.19-1.72,2.21-2.87,3.01-.16.11-.32.21-.48.31-1.37.86-2.96,1.42-4.69,1.56-5.81.5-10.91-3.82-11.4-9.61-.5-5.81,3.82-10.92,9.62-11.41,2.44-.2,4.74.43,6.65,1.68.45.3.89.62,1.28.98,1.94,1.73,3.23,4.18,3.48,6.97.06.67.05,1.32-.02,1.96Z"/>
    <circle class="cls-6" cx="10.68" cy="70.1" r="8.33"/>
    <circle class="cls-5" cx="10.68" cy="70.1" r="1.44"/>
  </g>
</svg>