<?xml version="1.0" encoding="UTF-8"?>
<svg id="Layer_2" data-name="Layer 2" xmlns="http://www.w3.org/2000/svg" viewBox="0 0 213.22 58.37">
  <defs>
    <style>
      .cls-1 {
        fill: #6067af;
      }

      .cls-2 {
        fill: #4abaeb;
      }

      .cls-3, .cls-4 {
        fill: #475569;
      }

      .cls-5 {
        fill: #94a3b7;
      }

      .cls-5, .cls-4 {
        stroke: #65748b;
      }

      .cls-5, .cls-4, .cls-6 {
        stroke-miterlimit: 10;
        stroke-width: .25px;
      }

      .cls-7 {
        fill: #4366b0;
      }

      .cls-8, .cls-6 {
        fill: #ccd5e1;
      }

      .cls-9, .cls-10 {
        fill: #fff;
      }

      .cls-11 {
        fill: #56bf92;
        opacity: .4;
      }

      .cls-12 {
        fill: #eb4998;
      }

      .cls-12, .cls-13 {
        opacity: .6;
      }

      .cls-14 {
        fill: #82d1f5;
      }

      .cls-10 {
        font-family: Lato-Black, Lato;
        font-size: 32px;
        font-weight: 800;
        letter-spacing: -.02em;
      }

      .cls-6 {
        stroke: #94a3b7;
      }
    </style>
  </defs>
  <g id="Layer_6" data-name="Layer 6">
    <g>
      <path class="cls-14" d="M40.81,11.4l-2.67,3.69c-.3.38-.59.68-.88.9-.29.22-.7.33-1.25.33s-1.03-.16-1.52-.47c-.49-.31-1.08-.67-1.76-1.07-.52-.3-1.1-.58-1.77-.83h0c-.32-1.25-.64-2.43-.97-3.54-.54-1.83-1.09-3.42-1.59-4.67-.02-.04-.03-.08-.05-.12,2.26.18,4.29.66,6.09,1.43,2.37,1.01,4.49,2.46,6.38,4.35Z"/>
      <path class="cls-14" d="M36.69,45.87c-1.04.63-2.11,1.16-3.21,1.57-1.41.53-2.86.91-4.37,1.13-1.5.22-3,.33-4.47.33-2.45,0-4.76-.43-6.94-1.29-.13-.06-.27-.11-.4-.17-.45-.19-.89-.4-1.31-.62-.4-2.23-.52-4.5-.66-6.6-.31-4.88-1.11-8.34-3.1-10.7-1.04-1.24-2.06-1.92-2.81-2.35-.52-.3-1.05-.53-1.56-.72-.76-.27-1.49-.44-2.1-.55.02-.5.05-1,.1-1.49.19-2.06.59-4.01,1.21-5.85.7-2.06,1.64-3.9,2.84-5.53,0,0,.01.02.01.02.14.27.3.54.46.82.93,1.6,3.16,4.19,5.85,6.87.18.18.36.35.54.53,0,0,.01.01.02.02,0,.02-.01.04-.02.07-.44,1.71-.65,3.65-.65,5.8s.24,4.24.72,5.99,1.17,3.22,2.07,4.41,2,2.09,3.28,2.71c1.29.62,2.74.92,4.35.92s2.92-.2,3.92-.59c1-.39,1.84-.83,2.52-1.31.68-.48,1.28-.92,1.78-1.31,0,0,.01,0,.01-.01.01.02.02.04.03.06.51,1.13.97,2.31,1.3,3.52.39,1.4.61,2.85.59,4.33Z"/>
      <g>
        <path class="cls-14" d="M41.22,42.01c-.94,1.1-1.95,2.05-3.02,2.85-.21.16-.42.3-.63.45-.29.2-.58.38-.88.56.01-1.48-.2-2.93-.59-4.33-.33-1.21-.79-2.4-1.3-3.52-.01-.02-.02-.04-.03-.06.42-.33.89-.52,1.4-.57.09-.01.19-.02.29-.02.82,0,1.44.31,1.85.94l2.91,3.69Z"/>
        <g class="cls-13">
          <path class="cls-9" d="M36.46,37.37c.82,0,1.44.31,1.85.94l2.91,3.69c-.94,1.1-1.95,2.05-3.02,2.85-.21.16-.42.3-.63.45-.29.2-.58.38-.88.56.01-1.48-.2-2.93-.59-4.33-.33-1.21-.79-2.4-1.3-3.52-.01-.02-.02-.04-.03-.06.42-.33.89-.52,1.4-.57.09-.01.19-.02.29-.02M36.46,37.12c-.11,0-.22,0-.33.02-.54.05-1.05.26-1.51.62l-.16.13.09.18.25-.05-.23.1c.55,1.22.99,2.39,1.29,3.49.4,1.44.6,2.88.58,4.26v.45s.38-.23.38-.23c.3-.18.59-.37.89-.57.22-.15.43-.3.64-.46,1.08-.81,2.11-1.78,3.06-2.89l.13-.16-.13-.16-2.91-3.69c-.45-.68-1.14-1.04-2.04-1.04h0Z"/>
        </g>
        <path class="cls-12" d="M41.22,42.01c-.94,1.1-1.95,2.05-3.02,2.85-.21.16-.42.3-.63.45-.29.2-.58.38-.88.56.01-1.48-.2-2.93-.59-4.33-.33-1.21-.79-2.4-1.3-3.52-.01-.02-.02-.04-.03-.06.42-.33.89-.52,1.4-.57.09-.01.19-.02.29-.02.82,0,1.44.31,1.85.94l2.91,3.69Z"/>
      </g>
      <g>
        <path class="cls-14" d="M30.96,13.96c-.22-.09-.44-.17-.67-.24-.11-.03-.22-.07-.33-.1-.88-.25-1.94-.37-3.18-.37-1.78,0-3.34.32-4.68.97-1.34.64-2.46,1.57-3.34,2.77-.7.95-1.26,2.05-1.68,3.3-.11.33-.21.66-.3,1,0,0-.01-.01-.02-.02-.18-.17-.36-.35-.54-.53-2.69-2.67-4.92-5.26-5.85-6.87-.16-.28-.31-.55-.46-.82,0,0,0-.02-.01-.02.2-.28.42-.55.64-.81.14-.18.29-.35.44-.52,1.72-1.93,3.86-3.44,6.4-4.53,2.55-1.09,5.47-1.64,8.78-1.64.37,0,.73,0,1.09.02.37.01.73.04,1.09.07.02.04.03.08.05.12.5,1.25,1.05,2.84,1.59,4.67.33,1.11.65,2.29.97,3.54Z"/>
        <g class="cls-13">
          <path class="cls-9" d="M26.16,5.54c.37,0,.73,0,1.09.02.37.01.73.04,1.09.07.02.04.03.08.05.12.5,1.25,1.05,2.84,1.59,4.67.33,1.11.65,2.29.97,3.54-.22-.09-.44-.17-.67-.24-.11-.03-.22-.07-.33-.1-.88-.25-1.94-.37-3.18-.37-1.78,0-3.34.32-4.68.97-1.34.64-2.46,1.57-3.34,2.77-.7.95-1.26,2.05-1.68,3.3-.11.33-.21.66-.3,1,0,0-.01-.01-.02-.02-.18-.17-.36-.35-.54-.53-2.69-2.67-4.92-5.26-5.85-6.87-.16-.28-.31-.55-.46-.82,0,0,0-.02-.01-.02.2-.28.42-.55.64-.81.14-.18.29-.35.44-.52,1.72-1.93,3.86-3.44,6.4-4.53,2.55-1.09,5.47-1.64,8.78-1.64M26.16,5.29c-3.33,0-6.32.56-8.88,1.66-2.57,1.11-4.75,2.65-6.49,4.6-.15.17-.3.35-.45.53-.21.25-.43.52-.64.82l-.13.17.13.13c.14.27.29.53.44.79.93,1.61,3.13,4.19,5.91,6.94.18.18.36.35.54.53l.31.3.12-.4c.08-.32.18-.64.29-.99.41-1.23.96-2.32,1.64-3.23.86-1.16,1.95-2.07,3.25-2.69,1.3-.62,2.84-.94,4.57-.94,1.2,0,2.25.12,3.11.36.11.03.22.06.32.1.23.07.44.15.66.24l.46.18-.12-.47c-.32-1.26-.65-2.45-.97-3.55-.54-1.82-1.1-3.45-1.6-4.69l-.03-.06-.03-.06-.06-.14h-.15c-.36-.04-.73-.07-1.1-.08-.36-.01-.73-.02-1.1-.02h0Z"/>
        </g>
        <path class="cls-11" d="M30.96,13.96c-.22-.09-.44-.17-.67-.24-.11-.03-.22-.07-.33-.1-.88-.25-1.94-.37-3.18-.37-1.78,0-3.34.32-4.68.97-1.34.64-2.46,1.57-3.34,2.77-.7.95-1.26,2.05-1.68,3.3-.11.33-.21.66-.3,1,0,0-.01-.01-.02-.02-.18-.17-.36-.35-.54-.53-2.69-2.67-4.92-5.26-5.85-6.87-.16-.28-.31-.55-.46-.82,0,0,0-.02-.01-.02.2-.28.42-.55.64-.81.14-.18.29-.35.44-.52,1.72-1.93,3.86-3.44,6.4-4.53,2.55-1.09,5.47-1.64,8.78-1.64.37,0,.73,0,1.09.02.37.01.73.04,1.09.07.02.04.03.08.05.12.5,1.25,1.05,2.84,1.59,4.67.33,1.11.65,2.29.97,3.54Z"/>
      </g>
      <g>
        <path class="cls-2" d="M15.98,46.83c-1.75-.92-3.32-2.13-4.69-3.63-1.71-1.86-3.06-4.14-4.06-6.83-1-2.69-1.5-5.76-1.5-9.21,0-.42,0-.84.02-1.25.61.1,1.34.27,2.1.55.52.19,1.05.42,1.56.72.75.43,1.77,1.11,2.81,2.35,1.99,2.36,2.78,5.82,3.1,10.7.13,2.1.25,4.38.66,6.6Z"/>
        <g class="cls-13">
          <path class="cls-9" d="M5.75,25.91c.61.1,1.34.27,2.1.55.52.19,1.05.42,1.56.72.75.43,1.77,1.11,2.81,2.35,1.99,2.36,2.78,5.82,3.1,10.7.13,2.1.25,4.38.66,6.6-1.75-.92-3.32-2.13-4.69-3.63-1.71-1.86-3.06-4.14-4.06-6.83-1-2.69-1.5-5.76-1.5-9.21,0-.42,0-.84.02-1.25M5.51,25.61v.28c-.03.42-.04.84-.04,1.26,0,3.46.51,6.59,1.51,9.3,1.01,2.72,2.39,5.05,4.11,6.91,1.38,1.5,2.98,2.74,4.76,3.68l.45.24-.09-.51c-.37-2.02-.49-4.05-.62-6.01l-.04-.56c-.35-5.39-1.29-8.63-3.16-10.85-1.1-1.31-2.17-2-2.88-2.4-.48-.28-1.02-.53-1.6-.74-.68-.24-1.4-.43-2.15-.56l-.28-.05h0Z"/>
        </g>
      </g>
      <path class="cls-3" d="M17.72,2.22c.65-.3.67-.67,1.2-.7.38-.03.81.42.81.81.04.57-.76.85-.97,1.19-.28.45-.16.67-.64.96-.39.24-.67.14-.87.05-.25-.11-.77-.75-.88-1.05-.13-.47.13-.82.32-.97.43-.33.63-.12,1.02-.3Z"/>
      <path class="cls-3" d="M14.42,6.06c-.71.1-.83.45-1.35.32-.37-.08-.65-.63-.54-1.01.12-.55.98-.6,1.27-.86.4-.35.35-.6.89-.74.45-.12.68.06.85.2.21.18.52.94.54,1.26-.01.49-.36.75-.58.83-.5.19-.63-.07-1.07-.01Z"/>
      <path class="cls-8" d="M19.79,22.89c-.02.56-.08.56-.66.61-.04-.04-.09-.08-.14-.13-.02-.01-.03-.03-.05-.04-.74-.67-1.47-1.35-2.16-2.03,0,0-.01-.01-.02-.02-.18-.17-.36-.35-.54-.53-2.69-2.67-4.92-5.26-5.85-6.87-.16-.28-.31-.55-.46-.82,0,0,0-.02-.01-.02-.37-.69-.67-1.37-.85-2.07-.25-.95-.26-1.91.15-2.94.64-1.63,2.48-2.38,3.32-2.65h0s.09-.03.13-.04c.21-.06.44.03.53.22,0,0,0,.01,0,.01.1.23-.03.5-.27.59-.04.01-.08.03-.13.05h0c-1.29.49-3,1.55-3.02,3.33,0,.11,0,.23.01.36.06.68.32,1.45.76,2.32,0,.01,0,.02.01.03,1.02,1.99,3.02,4.46,5.84,7.34.22.22.44.45.67.68,0,0,0,0,.01.01.76.76,1.58,1.55,2.46,2.37.01.01.02.02.03.03.07.07.14.13.22.2Z"/>
      <g>
        <path class="cls-8" d="M31.62,16.68c-.29.48-.4.36-.88.13-.02-.01-.04-.03-.04-.05-.04-.17-.07-.33-.11-.49,0,0,0,0,0-.01-.19-.87-.39-1.7-.59-2.5-.32-1.28-.65-2.47-1-3.57-.54-1.74-1.1-3.25-1.68-4.51-.66-1.44-1.34-2.57-2.04-3.36-.46-.52-.92-.9-1.39-1.13-1.66-.81-3.2.08-4.17,1-.02.02-.04.04-.07.07-.18.17-.46.17-.62-.02-.01-.01-.02-.03-.04-.04-.14-.18-.09-.44.07-.6.02-.01.03-.03.05-.05.66-.59,2.11-1.66,3.68-1.54,1.68.12,2.72,1,3.68,2.3.31.42.61.88.92,1.36.31.48.65,1.19,1.01,2.08.5,1.25,1.05,2.84,1.59,4.67.34,1.15.68,2.39,1.01,3.7.17.65.33,1.31.49,1.99h0c.04.19.09.38.13.57Z"/>
        <path class="cls-8" d="M31.62,16.68c-.29.48-.4.36-.88.13-.02-.01-.04-.03-.04-.05-.04-.17-.07-.33-.11-.49,0,0,0,0,0-.01-.19-.87-.39-1.7-.59-2.5-.32-1.28-.65-2.47-1-3.57-.54-1.74-1.1-3.25-1.68-4.51-.66-1.44-1.34-2.57-2.04-3.36-.46-.52-.92-.9-1.39-1.13-1.66-.81-3.2.08-4.17,1-.02.02-.04.04-.07.07-.18.17-.46.17-.62-.02-.01-.01-.02-.03-.04-.04-.14-.18-.09-.44.07-.6.02-.01.03-.03.05-.05.66-.59,2.11-1.66,3.68-1.54,1.68.12,2.72,1,3.68,2.3.31.42.61.88.92,1.36.31.48.65,1.19,1.01,2.08.5,1.25,1.05,2.84,1.59,4.67.34,1.15.68,2.39,1.01,3.7.17.65.33,1.31.49,1.99h0c.04.19.09.38.13.57Z"/>
      </g>
      <path class="cls-1" d="M36.49,52.85c-1.93,3.59-5.1,5.3-7.94,5.49-2.72.18-5.16-.75-6.93-1.93-2.46-1.64-3.74-3.77-4.47-5.52-.53-1.25-.89-2.57-1.13-3.91-.01-.05-.02-.1-.03-.16-.4-2.23-.52-4.5-.66-6.6-.31-4.88-1.11-8.34-3.1-10.7-1.04-1.24-2.06-1.92-2.81-2.35-.52-.3-1.05-.53-1.56-.72-.76-.27-1.49-.44-2.1-.55-1-.17-1.69-.17-1.69-.17l.18-1.44s.67,0,1.61.12c1.11.15,2.65.5,4.17,1.34,1.75.96,2.74,2.05,3.29,2.68,2.26,2.59,3.15,6.34,3.53,11.75.25,3.5.46,5.68.85,7.43.01.05.02.1.03.15.21.91.47,1.7.8,2.51.86,2.08,2.08,3.56,3.63,4.65,1.6,1.12,3.07,1.87,5.79,1.92,2.34.04,5.61-1.5,7.32-4.96.96-1.95,1.39-3.96,1.41-5.93v-.08c.01-1.48-.2-2.93-.59-4.33-.33-1.21-.79-2.4-1.3-3.52-.01-.02-.02-.04-.03-.06-1.04-2.29-2.32-4.36-3.29-6.01-1.03-1.75-2.76-3.09-5.12-3.14-1.8-.04-2.92-1.07-3.25-1.33-1.51-1.21-2.72-2.3-4.05-3.55-.12-.11-.14-.29-.12-.44,0-.04.02-.08.04-.12.05-.1.15-.21.31-.4.12-.15.2-.24.26-.28.08-.06.13-.08.21-.08.18-.01.31.03.45.16.44.43,3.77,3.56,5.16,4.11.97.38,2.17.63,3.76-.24,1.2-.66,1.95-2.55,2.06-3.31.22-1.6-.52-5.05-.88-6.45-.08-.31.07-.47.16-.55.03-.02.06-.04.09-.06.13-.07.31-.08.45-.1.17-.03.32-.07.44-.06h.01c.09,0,.34.07.42.31.38,1.08,1.14,4.85,1.16,6.42.01,1.82-1.1,3.14-1.33,3.68-.86,2.01.29,3.43,1.04,4.62,1.01,1.62,2.33,3.89,3.4,6.25.02.03.03.07.05.11.56,1.25,1.04,2.51,1.37,3.71.28,1.01.52,2.26.61,3.66,0,.02,0,.05,0,.07.13,2.36-.21,5.14-1.71,7.92Z"/>
      <path class="cls-8" d="M8.33,24.98s0,.02,0,.04l-.35,1.08-.1.31s0,.02-.01.03c-.02.03-.07.05-.11.04l-.88-.29-.17-.05c-.06-.02-.08-.08-.07-.13l.45-1.39c.02-.05.08-.08.13-.06l.19.06.85.28s.06.04.07.08c0,0,0,0,0,.01Z"/>
      <path class="cls-4" d="M7.4,24.62c-.06.57-.25,1.11-.54,1.58-.26.41-.59.76-.99,1.04-.05.04-.11.07-.16.11-.47.3-1.02.49-1.62.54-2.01.17-3.77-1.32-3.94-3.32-.17-2.01,1.32-3.78,3.33-3.95.84-.07,1.64.15,2.3.58.16.1.31.21.44.34.67.6,1.12,1.45,1.2,2.41.02.23.02.46,0,.68Z"/>
      <circle class="cls-6" cx="3.77" cy="24.25" r="2.88"/>
      <circle class="cls-5" cx="3.77" cy="24.25" r=".5"/>
    </g>
    <g>
      <rect class="cls-7" x="57.22" y="11.18" width="156" height="36" rx="4" ry="4"/>
      <text class="cls-10" transform="translate(64.16 40.82) scale(1 .96)"><tspan x="0" y="0">PREVIEW</tspan></text>
    </g>
  </g>
</svg>