<?xml version="1.0" encoding="UTF-8"?>
<svg id="Layer_2" data-name="Layer 2" xmlns="http://www.w3.org/2000/svg" viewBox="0 0 226.42 60">
  <defs>
    <style>
      .cls-1 {
        fill: #fff;
      }
    </style>
  </defs>
  <g id="a">
    <path class="cls-1" d="M19.84,30.88h-3.72V11.04h3.72v-4.96H2.48v4.96h3.72v19.84l4.97,4.97h8.68v-4.97ZM32.24,35.85h8.68l4.96-4.97V11.04h3.72v-4.96h-17.36v4.96h3.72v19.84h-3.72v4.97Z"/>
    <path class="cls-1" d="M49.92,40.5l10.85-10.86h4.96v-4.96h-18.6v4.96h1.86l-7.44,7.44h-10.54v-7.44h3.72v-4.96h-17.36v4.96h3.72v22.33h-3.72v4.96h17.36v-4.96h-3.72v-7.44h10.54l7.44,7.44h-1.86v4.96h18.6v-4.96h-4.33l-11.47-11.47Z"/>
    <path class="cls-1" d="M66.96,58.17h-21.08v-7.44l-4.96-4.96h-8.68v4.96h3.72v7.44h-19.85v-7.44h3.72v-13.64h-9.3l-5.58-5.58V12.28H1.24v-7.44h19.84v7.44h-3.72v11.16h17.36v-11.16h-3.72v-7.44h19.84v7.44h-3.72v11.16h19.84v7.44h-5.58l-9.61,9.61,10.23,10.23h4.96v7.44h0ZM62.62,49.48l-8.99-8.99,8.37-8.37h6.2v-9.92h-19.84v-8.68h3.72V3.61h-22.33v9.92h3.72v8.68h-14.87v-8.68h3.72V3.61H0v9.92h3.72v18.6l6.2,6.2h8.68v11.16h-3.72v9.92h22.33v-9.92h-3.72v-2.48h6.82l4.34,4.34v8.06h23.57v-9.92h-5.6ZM97.51,24.29c-2.21,1.17-4.01,1.83-7.15,1.83-6.95,0-11.79-4.49-11.79-11.3,0-6.39,5.01-11.75,11.85-11.75,1.77,0,3.76.38,5.08,1.07l1.49-1.17h.38l.28,7.4-.56.07c-2.31-4.63-4.64-6.36-8.09-6.36-3.04,0-6.43,2.97-6.43,10.16s3.94,10.71,8.68,10.71c1.04,0,1.9-.14,2.7-.48l3.91-4.88.31.14-.65,4.56v-.02ZM108.57,26.17c-4.88,0-7.53-3.56-7.53-8.29,0-4.42,2.97-8.29,8.02-8.29s7.5,3.46,7.5,8.19c0,4.42-2.9,8.4-7.99,8.4h0ZM108.67,10.34c-2.38,0-4.29,2.46-4.29,7.64s2.11,7.43,4.53,7.43c2.55,0,4.28-2.46,4.28-7.64s-1.94-7.43-4.53-7.43h0ZM126.36,25.16v.45h-7.64v-.45l2.42-.62V3.18l-2.52-1.49v-.35l5.32-1.34.14.07v24.47l2.28.62h0ZM135.66,25.16v.45h-7.64v-.45l2.42-.62V3.18l-2.52-1.49v-.35l5.32-1.34.14.07v24.47l2.28.62h0ZM140.7,16.28c0,4.6,1.56,7.75,5.46,7.75,1.69,0,3.11-.38,5.08-1.38l.21.41c-2.14,2.04-4.08,3.11-6.33,3.11-4.42,0-7.57-3.25-7.57-8.05s3.35-8.53,7.64-8.53,6.43,2.87,6.43,6.71h-10.92ZM148.31,15.31c-.24-2.97-1.21-4.97-3.35-4.97s-4.01,2.07-4.21,5.22l7.57-.24h0ZM161.02,20.25c-1,0-1.94-.24-2.63-.56-.52.48-.76,1.49-.76,2.21,0,1.04.76,1.34,2.52,1.38l4.25.07c3.56.07,4.97,1.31,4.97,3.7,0,2.73-3,5.81-8.81,5.81-4.49,0-6.91-1.8-6.91-3.8,0-1.45,1.45-2.83,3.67-3.56l-.04-.17c-1.38-.45-2.18-1.34-2.18-2.42s.83-2.28,2.7-3.39v-.17c-1.77-.86-2.91-2.25-2.91-4.39,0-3.32,2.94-5.36,6.46-5.36,1.59,0,3,.41,4.01,1.14,1.66-1.07,2.91-1.56,3.97-1.56,1.14,0,1.73.69,1.73,1.56s-.69,1.62-1.56,1.62-1.45-.56-1.56-1.42l-2.01.24-.07.17c.9.9,1.34,2.01,1.34,3.22,0,3.35-2.55,5.66-6.22,5.66v.02ZM163.79,25.78l-5.74-.07c-.9.59-1.49,1.69-1.49,2.9,0,1.83,1.8,3.32,5.25,3.32s5.18-1.8,5.18-3.56c0-1.62-1-2.52-3.22-2.59h0ZM160.92,10.3c-1.86,0-2.9,1.42-2.9,4.67,0,3.42,1.1,4.6,3.22,4.6,1.83,0,2.91-1.94,2.91-4.6s-1.14-4.67-3.22-4.67h0ZM174.5,16.28c0,4.6,1.56,7.75,5.46,7.75,1.69,0,3.11-.38,5.08-1.38l.21.41c-2.14,2.04-4.08,3.11-6.33,3.11-4.42,0-7.57-3.25-7.57-8.05s3.35-8.53,7.64-8.53,6.43,2.87,6.43,6.71h-10.92ZM182.1,15.31c-.24-2.97-1.21-4.97-3.35-4.97s-4.01,2.07-4.21,5.22l7.57-.24h0ZM203.39,26.17c-4.88,0-7.53-3.56-7.53-8.29,0-4.42,2.97-8.29,8.02-8.29s7.5,3.46,7.5,8.19c0,4.42-2.9,8.4-7.99,8.4h0ZM203.49,10.34c-2.38,0-4.29,2.46-4.29,7.64s2.11,7.43,4.53,7.43c2.55,0,4.28-2.46,4.28-7.64s-1.94-7.43-4.53-7.43h0ZM219.49,11.72v12.82l2.8.62v.45h-8.02v-.45l2.28-.62v-12.82h-3.11v-.59l3.11-.9v-1.66c0-3.39.93-5.36,2.7-6.87,1.25-1.1,2.76-1.66,4.36-1.66,1.83,0,2.8.86,2.8,1.94s-.69,1.77-1.73,1.77-2.04-.69-3.07-2.52c-1.45.86-2.11,2.66-2.11,6.05v3.07h4.28v1.38h-4.3ZM107.53,58.83v.59h-10.3v-.59l3.42-.62v-19.04h-.24l-8.09,20.25h-.83l-8.43-20.25h-.24v18.73l2.73.93v.59h-6.6v-.59l2.73-.93v-19.22l-2.73-.69v-.59h7.26l1.34,3.56,5.53,13.65h.17l5.39-13.65,1.28-3.56h7.6v.59l-3.42.62v19.59l3.42.62h0ZM112.26,50.08c0,4.6,1.56,7.75,5.46,7.75,1.69,0,3.11-.38,5.08-1.38l.21.41c-2.14,2.04-4.08,3.11-6.33,3.11-4.42,0-7.57-3.25-7.57-8.05s3.35-8.53,7.64-8.53,6.43,2.87,6.43,6.7h-10.92ZM119.86,49.11c-.24-2.97-1.21-4.98-3.35-4.98s-4.01,2.07-4.21,5.22l7.57-.24h0ZM142.26,58.38v.35l-4.67,1.28-.17-.07-.28-2.28-.14-.07-.86.76c-1,.93-2.25,1.62-4.08,1.62-3.18,0-6.29-2.7-6.29-7.81,0-4.49,2.9-8.78,8.68-8.78,1.07,0,1.8.07,2.63.24v-6.63l-2.52-1.49v-.35l5.29-1.34.14.07v23.6l2.28.9h0ZM133.83,57.96c1.31,0,2.42-.45,3.25-1.31v-10.34c-.86-1.28-2.07-2.11-3.7-2.11-2.21,0-4.53,2.18-4.53,7.36,0,3.8,2.04,6.39,4.97,6.39h0ZM144.02,44.9v-.31l5.05-1.25.14.11v14.9l2.31.62v.45h-7.64v-.45l2.42-.62v-11.99l-2.28-1.45h0ZM147.86,36.22c1.07,0,1.86.8,1.86,1.86s-.9,2.11-2.07,2.11c-1.07,0-1.83-.8-1.83-1.9s.9-2.07,2.04-2.07h0ZM165,48.56c-1.25,0-1.97-1.04-1.97-2.07,0-.76.31-1.52.76-2.04-.48-.11-.86-.14-1.45-.14-2.91,0-5.63,2.04-5.63,6.98,0,3.67,1.97,6.53,5.49,6.53,1.69,0,3.25-.48,4.88-1.28l.17.45c-1.62,1.77-3.84,2.97-6.05,2.97-4.45,0-7.6-3.22-7.6-8.02s3.56-8.57,8.5-8.57c2.87,0,4.77,1.38,4.77,3.11,0,1.17-.8,2.07-1.86,2.07h0ZM169.42,44.9v-.31l5.05-1.25.14.11v14.9l2.31.62v.45h-7.64v-.45l2.42-.62v-11.99l-2.28-1.45h0ZM173.25,36.22c1.07,0,1.86.8,1.86,1.86s-.9,2.11-2.07,2.11c-1.07,0-1.83-.8-1.83-1.9s.9-2.07,2.04-2.07h0ZM194.2,58.34l2.28.62v.45h-7.36v-.45l2.18-.62v-8.68c0-2.63-.93-3.87-3.25-3.87-1.45,0-2.49.28-3.87,1.07v11.47l2.14.62v.45h-7.36v-.45l2.28-.62v-11.99l-2.25-1.45v-.31l4.84-1.25.14.11-.07,2.76.14.07c2.07-1.94,4.04-2.9,5.91-2.9,3.11,0,4.25,2.35,4.25,4.81v10.16-.02ZM201.42,50.08c0,4.6,1.56,7.75,5.46,7.75,1.69,0,3.11-.38,5.08-1.38l.21.41c-2.14,2.04-4.08,3.11-6.33,3.11-4.42,0-7.57-3.25-7.57-8.05s3.35-8.53,7.64-8.53,6.43,2.87,6.43,6.7h-10.92ZM209.02,49.11c-.24-2.97-1.21-4.98-3.35-4.98s-4.01,2.07-4.21,5.22l7.56-.24h0Z"/>
  </g>
</svg>